<?xml version="1.0"?>
<svg xmlns="http://www.w3.org/2000/svg" height="512px" viewBox="-4 0 471 471.99497" width="512px"><g><path d="m464.445312 239.996094c.007813-29.351563-19.96875-54.9375-48.449218-62.042969.167968-.589844.261718-1.199219.28125-1.8125-4.210938-98.476563-85.269532-176.140625-183.832032-176.140625s-179.621093 77.664062-183.832031 176.140625c.019531.613281.113281 1.222656.28125 1.8125-29.847656 7.503906-50.128906 35.191406-48.28125 65.914063 1.847657 30.71875 25.300781 55.777343 55.832031 59.648437 2.65625.320313 5.324219.480469 8 .480469h16v-128h-15.777343c4.617187-89.296875 78.363281-159.328125 167.777343-159.328125 89.414063 0 163.160157 70.03125 167.777344 159.328125h-15.777344v128h16v24c0 63.847656-51.585937 112-120 112-.46875.046875-.933593.140625-1.382812.277344-3.777344-11.121094-15.050781-17.871094-26.636719-15.957032-11.589843 1.914063-20.089843 11.933594-20.089843 23.679688 0 11.742187 8.5 21.761718 20.089843 23.679687 11.585938 1.914063 22.859375-4.839843 26.636719-15.960937.449219.136718.914062.230468 1.382812.28125 77.527344 0 136-55.023438 136-128v-24c-.042968-.714844-.183593-1.421875-.425781-2.097656 28.527344-6.933594 48.5625-32.546876 48.425781-61.902344zm0 0" data-original="#000000" class="active-path" data-old_color="#000000" fill="#7BBA22"/></g> </svg>
